<svg width="76" height="78" viewBox="0 0 76 78" fill="none" xmlns="http://www.w3.org/2000/svg">
<path fill-rule="evenodd" clip-rule="evenodd" d="M62.5872 31.34C61.0175 19.6685 50.877 10.4689 38.9156 9.71795C36.718 9.96828 34.5203 10.0309 32.3855 10.4689C21.2404 12.7532 12.8894 22.8602 12.5127 34.9698C12.3557 40.477 13.7371 45.6713 17.0021 50.1146C19.5765 53.6505 22.5276 56.9673 25.4473 60.2529C29.6228 64.9465 33.3901 69.8905 35.8075 75.7419C36.1529 76.5868 36.6552 77.2439 37.6284 77.2439C38.6331 77.2439 39.1668 76.5868 39.5121 75.7106C41.4586 71.017 44.2213 66.824 47.5492 62.9752C50.4061 59.6896 53.3572 56.498 56.1513 53.1811C61.457 46.829 63.686 39.5695 62.5872 31.34ZM37.6912 54.6518C27.0798 54.6518 18.4777 46.0781 18.4777 35.533C18.4777 24.9879 27.0798 16.3829 37.6912 16.3829C48.3026 16.3829 56.8734 24.9567 56.8734 35.533C56.8734 46.1094 48.2712 54.6518 37.6912 54.6518Z" fill="url(#paint0_linear_44_7)" stroke="url(#paint1_linear_44_7)" stroke-width="0.25" stroke-miterlimit="10"/>
<path fill-rule="evenodd" clip-rule="evenodd" d="M64.6907 16.8209C64.879 17.259 65.0674 17.6345 65.2558 18.01C66.0092 19.731 66.5743 21.5146 66.9511 23.3607C66.9825 23.5798 67.0453 23.7049 67.2964 23.7049C67.7359 23.7049 68.1755 23.7675 68.5522 24.0804C68.8034 24.2995 68.9917 24.5498 68.9917 24.8627C68.9917 25.0505 69.0545 25.113 69.2429 25.1443C69.8394 25.2382 70.4045 25.3947 71.001 25.5198C71.6917 25.6137 72.2254 25.9266 72.6649 26.4273C73.6068 27.4599 74.2032 28.6802 74.6428 29.9944C75.5532 32.5603 75.8358 35.22 75.8986 37.911C75.93 39.7572 75.8672 41.6034 75.5846 43.4183C75.2707 45.5773 74.737 47.6738 73.6068 49.5826C73.2928 50.0832 72.9161 50.5526 72.5393 51.022C72.0056 51.6791 71.2207 51.8042 70.4359 51.9607C70.0278 52.0233 69.5882 52.1171 69.1801 52.211C69.0859 52.211 68.9917 52.3362 68.9603 52.3988C68.8348 53.0872 68.458 53.494 67.736 53.5878C67.0139 53.6817 66.2918 53.7443 65.5697 53.8382C65.4755 53.8382 65.35 53.8694 65.2558 53.9007H65.193C64.879 53.7756 64.5651 53.6817 64.2511 53.5565C64.157 53.5252 64.0942 53.4001 64.0314 53.3688C68.6464 43.5747 68.6464 33.8119 64 23.9866C64.2825 23.8301 64.6279 23.6424 64.9732 23.4233C64.7221 22.8601 64.5023 22.2343 64.1883 21.6397C63.4977 20.3255 62.7442 19.0426 61.9907 17.7597C61.8337 17.478 61.8023 17.1964 61.7082 17.259C61.1117 16.508 60.5152 15.757 59.8873 15.0686C57.6896 12.5341 55.0525 10.4689 52.1014 8.84173C49.527 7.43364 46.8271 6.46362 43.9702 5.8378C41.3958 5.30585 38.79 5.08682 36.1529 5.24327C32.2285 5.4936 28.4612 6.43233 24.8822 8.15333C21.4916 9.78046 18.5091 12.0021 15.9975 14.787C13.7685 17.259 12.0731 20.0439 10.8487 23.1417C10.8487 23.2043 10.8174 23.2669 10.786 23.3295C10.786 23.3295 10.786 23.392 10.786 23.3607C11.1313 23.5172 11.4139 23.6424 11.7278 23.7988C11.9162 23.8927 11.9162 24.0179 11.822 24.2369C11.0371 25.7701 10.4092 27.366 9.90691 28.9931C9.3418 30.808 8.96506 32.6229 8.71391 34.5003C8.49414 36.1588 8.43136 37.8485 8.46276 39.5069C8.52554 41.5408 8.74531 43.5434 9.18483 45.546C9.74994 48.1119 10.5976 50.5839 11.7592 52.9307C11.822 53.0246 11.8534 53.1185 11.9162 53.2436C11.6336 53.6504 11.1941 53.7443 10.7232 53.8382H10.6604C9.90691 53.7443 9.18483 53.6504 8.43135 53.5878C7.99183 53.5565 7.55231 53.4627 7.26975 53.0872C7.11278 52.8994 7.0186 52.6491 6.9872 52.4301C6.95581 52.2423 6.89302 52.1797 6.70465 52.1484C6.04536 52.0233 5.38608 51.8668 4.72679 51.7417C3.87913 51.5852 3.37681 51.022 2.90589 50.4274C2.05824 49.301 1.49314 48.0493 1.08501 46.7038C0.0803756 43.4495 -0.107998 40.164 0.0489751 36.7846C0.143159 34.8758 0.394318 32.9984 0.896633 31.1835C1.24198 29.9631 1.6815 28.7428 2.34079 27.6476C3.06286 26.396 3.97331 25.4259 5.54305 25.3321C5.95118 25.3321 6.35931 25.1756 6.73605 25.0817C6.79884 25.0817 6.92441 24.9566 6.92441 24.894C6.92441 24.1743 7.6151 23.7675 8.11741 23.7049C8.68252 23.6111 8.71391 23.6111 8.8081 23.0478C9.3732 20.3881 10.315 17.8535 11.665 15.5067C13.4545 12.4402 15.7777 9.87434 18.6346 7.77784C20.3927 6.49491 22.245 5.43102 24.2543 4.52358C24.3799 4.49229 24.5054 4.33583 24.5368 4.21067C24.6938 3.74131 24.8508 3.27194 24.945 2.80258C25.0078 2.55225 25.1647 2.42709 25.3845 2.33321C27.4565 1.45706 29.6228 0.831245 31.8204 0.455754C34.3006 0.0489711 36.7808 -0.0449018 39.261 0.0176801C40.9249 0.0802621 42.5888 0.236717 44.2213 0.549627C46.2934 0.925118 48.3026 1.55094 50.2177 2.39579C50.3433 2.45838 50.5003 2.61483 50.5317 2.77129C50.6886 3.24065 50.8142 3.74131 50.9712 4.24196C51.0026 4.36713 51.1282 4.49229 51.2537 4.52358C54.8013 6.08813 57.9722 8.24721 60.6094 11.126C61.614 12.2212 62.493 13.3476 63.2779 14.5993C63.686 15.2564 64.0628 15.9135 64.4081 16.5393" fill="white"/>
<defs>
<linearGradient id="paint0_linear_44_7" x1="12.5127" y1="43.4809" x2="62.8698" y2="43.4809" gradientUnits="userSpaceOnUse">
<stop stop-color="#E65526"/>
<stop offset="0.32" stop-color="#E65827"/>
<stop offset="0.59" stop-color="#EA622A"/>
<stop offset="0.82" stop-color="#EF7231"/>
<stop offset="1" stop-color="#F58538"/>
</linearGradient>
<linearGradient id="paint1_linear_44_7" x1="12.1045" y1="43.4809" x2="63.2779" y2="43.4809" gradientUnits="userSpaceOnUse">
<stop stop-color="#D76527"/>
<stop offset="0.39" stop-color="#DA6727"/>
<stop offset="0.71" stop-color="#E4702A"/>
<stop offset="1" stop-color="#F5802F"/>
</linearGradient>
</defs>
</svg>
