<svg width="236" height="126" viewBox="0 0 236 126" fill="none" xmlns="http://www.w3.org/2000/svg">
<g clip-path="url(#clip0_3_24)">
<path fill-rule="evenodd" clip-rule="evenodd" d="M137.403 25.3217C136.132 15.8673 127.917 8.41524 118.228 7.80692C116.448 8.00969 114.668 8.06039 112.938 8.41524C103.91 10.2656 97.1457 18.4527 96.8406 28.262C96.7134 32.723 97.8324 36.9306 100.477 40.5299C102.563 43.3941 104.953 46.0809 107.318 48.7423C110.7 52.5444 113.752 56.5492 115.71 61.2891C115.99 61.9735 116.397 62.5058 117.185 62.5058C117.999 62.5058 118.432 61.9735 118.711 61.2638C120.288 57.4617 122.526 54.0652 125.222 50.9475C127.536 48.2861 129.926 45.7007 132.19 43.0139C136.488 37.8685 138.293 31.988 137.403 25.3217ZM117.236 44.2052C108.641 44.2052 101.672 37.2601 101.672 28.7182C101.672 20.1763 108.641 13.2058 117.236 13.2058C125.832 13.2058 132.775 20.1509 132.775 28.7182C132.775 37.2855 125.807 44.2052 117.236 44.2052Z" fill="url(#paint0_linear_3_24)" stroke="url(#paint1_linear_3_24)" stroke-width="0.25" stroke-miterlimit="10"/>
<path fill-rule="evenodd" clip-rule="evenodd" d="M139.107 13.5607C139.26 13.9155 139.412 14.2197 139.565 14.5239C140.175 15.9179 140.633 17.3627 140.938 18.8582C140.963 19.0356 141.014 19.137 141.218 19.137C141.574 19.137 141.93 19.1877 142.235 19.4412C142.438 19.6186 142.591 19.8214 142.591 20.0748C142.591 20.2269 142.642 20.2776 142.794 20.303C143.278 20.379 143.735 20.5057 144.219 20.6071C144.778 20.6832 145.21 20.9366 145.566 21.3422C146.329 22.1786 146.813 23.1672 147.169 24.2318C147.906 26.3102 148.135 28.4647 148.186 30.6446C148.211 32.14 148.16 33.6355 147.932 35.1056C147.677 36.8546 147.245 38.5528 146.329 40.099C146.075 40.5045 145.77 40.8847 145.465 41.2649C145.032 41.7972 144.397 41.8986 143.761 42.0254C143.43 42.076 143.074 42.1521 142.744 42.2281C142.667 42.2281 142.591 42.3295 142.566 42.3802C142.464 42.9378 142.159 43.2674 141.574 43.3434C140.989 43.4194 140.404 43.4701 139.819 43.5462C139.743 43.5462 139.641 43.5715 139.565 43.5969H139.514C139.26 43.4955 139.005 43.4194 138.751 43.3181C138.675 43.2927 138.624 43.1913 138.573 43.166C142.311 35.2324 142.311 27.3241 138.547 19.3651C138.776 19.2384 139.056 19.0863 139.336 18.9089C139.132 18.4526 138.954 17.9457 138.7 17.4641C138.141 16.3995 137.53 15.3603 136.92 14.3211C136.793 14.093 136.767 13.8648 136.691 13.9155C136.208 13.3072 135.725 12.6989 135.216 12.1412C133.436 10.0881 131.3 8.41522 128.909 7.09718C126.824 5.95656 124.637 5.1708 122.322 4.66386C120.237 4.23296 118.126 4.05553 115.99 4.18227C112.811 4.38505 109.76 5.14546 106.86 6.53954C104.114 7.85759 101.698 9.65722 99.6634 11.9131C97.8578 13.9155 96.4845 16.1714 95.4927 18.6808C95.4927 18.7315 95.4673 18.7821 95.4419 18.8328C95.4419 18.8328 95.4419 18.8835 95.4419 18.8582C95.7216 18.9849 95.9505 19.0863 96.2048 19.213C96.3574 19.2891 96.3574 19.3905 96.2811 19.5679C95.6453 20.8099 95.1367 22.1026 94.7298 23.4207C94.272 24.8908 93.9669 26.3609 93.7634 27.8817C93.5854 29.2251 93.5345 30.5939 93.56 31.9372C93.6108 33.5848 93.7888 35.207 94.1449 36.8292C94.6026 38.9077 95.2893 40.9101 96.2302 42.8111C96.2811 42.8872 96.3065 42.9632 96.3574 43.0646C96.1285 43.3941 95.7725 43.4701 95.391 43.5462H95.3401C94.7298 43.4701 94.1449 43.3941 93.5345 43.3434C93.1785 43.3181 92.8225 43.242 92.5936 42.9379C92.4664 42.7858 92.3901 42.583 92.3647 42.4056C92.3393 42.2535 92.2884 42.2028 92.1358 42.1774C91.6018 42.076 91.0677 41.9493 90.5337 41.8479C89.847 41.7212 89.4401 41.2649 89.0587 40.7834C88.372 39.8709 87.9143 38.857 87.5837 37.7671C86.7699 35.131 86.6173 32.4695 86.7444 29.7321C86.8207 28.1859 87.0242 26.6651 87.4311 25.1949C87.7108 24.2064 88.0669 23.2179 88.6009 22.3307C89.1858 21.3169 89.9233 20.5311 91.1949 20.455C91.5255 20.455 91.8561 20.3283 92.1613 20.2523C92.2121 20.2523 92.3138 20.1509 92.3138 20.1002C92.3138 19.5172 92.8733 19.1877 93.2802 19.137C93.738 19.061 93.7634 19.061 93.8397 18.6047C94.2975 16.4502 95.0604 14.3971 96.1539 12.4961C97.6035 10.0121 99.4854 7.93363 101.8 6.23538C103.224 5.19615 104.724 4.33435 106.352 3.59929C106.453 3.57394 106.555 3.44721 106.581 3.34582C106.708 2.96561 106.835 2.58541 106.911 2.2052C106.962 2.00243 107.089 1.90104 107.267 1.825C108.946 1.11528 110.7 0.608342 112.481 0.304177C114.49 -0.0253338 116.499 -0.101375 118.508 -0.0506808C119.856 1.32322e-05 121.203 0.126748 122.526 0.380218C124.204 0.684383 125.832 1.19132 127.383 1.87569C127.485 1.92639 127.612 2.05312 127.638 2.17986C127.765 2.56006 127.866 2.96561 127.994 3.37117C128.019 3.47255 128.121 3.57394 128.222 3.59929C131.096 4.86664 133.665 6.61558 135.801 8.94751C136.615 9.83465 137.327 10.7471 137.963 11.761C138.293 12.2933 138.598 12.8256 138.878 13.3325" fill="white"/>
<path d="M23.4983 117.661V95.9638L13.8345 112.744H12.3086L2.59397 95.9638V117.661H0V91.2239H2.64483L13.0207 109.322L23.3966 91.2239H26.0414V117.661H23.4728H23.4983Z" fill="white"/>
<path d="M37.3328 118.016C36.341 118.016 35.4254 117.864 34.6116 117.559C33.7979 117.255 33.0858 116.824 32.5009 116.267C31.916 115.734 31.4582 115.101 31.1276 114.366C30.797 113.656 30.6444 112.896 30.6444 112.085C30.6444 111.197 30.8479 110.386 31.2293 109.651C31.6362 108.916 32.1957 108.282 32.9078 107.776C33.6198 107.243 34.4845 106.838 35.5017 106.559C36.519 106.28 37.6125 106.128 38.8332 106.128C39.7996 106.128 40.7914 106.204 41.8341 106.381C42.8513 106.559 43.7668 106.812 44.5552 107.116V105.368C44.5552 103.644 44.072 102.301 43.0802 101.287C42.0884 100.273 40.766 99.7659 39.1129 99.7659C38.0703 99.7659 37.0276 99.9686 35.9849 100.374C34.9423 100.78 33.8996 101.337 32.8315 102.098L31.9414 100.425C33.2129 99.5884 34.4336 98.9547 35.6289 98.5238C36.8242 98.0929 38.0703 97.8902 39.3673 97.8902C41.7323 97.8902 43.6142 98.5745 45.0129 99.9433C46.4117 101.312 47.0983 103.188 47.0983 105.596V114.34C47.0983 115.025 47.4035 115.38 47.9884 115.38V117.61C47.7849 117.61 47.6069 117.661 47.4289 117.661C47.2509 117.661 47.0983 117.661 46.9711 117.661C46.4625 117.661 46.0048 117.509 45.5979 117.205C45.191 116.9 44.9621 116.47 44.9112 115.861L44.8349 114.34C43.9957 115.481 42.8767 116.368 41.5035 117.002C40.1302 117.635 38.7315 117.94 37.3073 117.94L37.3328 118.016ZM37.9685 116.089C39.0875 116.089 40.2065 115.836 41.3 115.354C42.419 114.873 43.2836 114.214 43.9448 113.352C44.1229 113.124 44.2754 112.896 44.4026 112.617C44.5298 112.363 44.5806 112.11 44.5806 111.882V108.713C43.7414 108.384 42.8513 108.13 41.9358 107.978C41.0203 107.826 40.1302 107.725 39.2401 107.725C37.4091 107.725 35.9341 108.105 34.8151 108.815C33.6707 109.55 33.1112 110.564 33.1112 111.856C33.1112 112.389 33.2129 112.896 33.4164 113.377C33.6198 113.884 33.925 114.315 34.3319 114.721C34.7388 115.126 35.2474 115.43 35.8578 115.684C36.4427 115.937 37.1548 116.064 37.994 116.064L37.9685 116.089Z" fill="white"/>
<path d="M62.6112 118.016C60.9582 118.016 59.5086 117.61 58.237 116.774C56.9655 115.937 55.9482 114.898 55.1853 113.631V125.594H52.6422V98.2704H54.931V102.022C55.7194 100.805 56.762 99.8166 58.0336 99.0561C59.3051 98.2957 60.6784 97.9155 62.1788 97.9155C63.5267 97.9155 64.7728 98.1943 65.8918 98.752C67.0362 99.3096 68.0026 100.045 68.8163 100.983C69.6301 101.92 70.2913 102.985 70.7491 104.202C71.2069 105.418 71.4357 106.66 71.4357 107.953C71.4357 109.322 71.2323 110.614 70.8 111.831C70.3676 113.048 69.7827 114.112 68.9944 115.025C68.206 115.937 67.2651 116.672 66.197 117.205C65.1034 117.737 63.9336 118.016 62.6366 118.016H62.6112ZM61.8991 115.785C62.9418 115.785 63.8827 115.557 64.7474 115.126C65.5866 114.67 66.3241 114.087 66.9344 113.352C67.5448 112.617 68.0026 111.78 68.3332 110.868C68.6638 109.93 68.8163 108.967 68.8163 107.978C68.8163 106.939 68.6383 105.951 68.2569 104.987C67.8754 104.049 67.3668 103.213 66.731 102.503C66.0952 101.794 65.3069 101.211 64.4422 100.78C63.5521 100.349 62.6112 100.146 61.5939 100.146C60.9582 100.146 60.2715 100.273 59.5849 100.526C58.8982 100.78 58.237 101.135 57.6013 101.565C56.9655 101.996 56.4569 102.503 56.0245 103.086C55.5922 103.669 55.3125 104.278 55.2107 104.937V110.893C55.5159 111.578 55.8974 112.237 56.3551 112.82C56.8129 113.428 57.347 113.935 57.9319 114.366C58.5168 114.797 59.1526 115.151 59.8392 115.38C60.5258 115.633 61.2379 115.76 61.95 115.76L61.8991 115.785Z" fill="white"/>
<path d="M99.7405 117.661V95.9638L90.0767 112.744H88.5509L78.8362 95.9638V117.661H76.2677V91.2239H78.9125L89.2884 109.322L99.6642 91.2239H102.309V117.661H99.7405Z" fill="white"/>
<path d="M109.531 123.643C109.531 123.643 109.786 123.693 109.913 123.693C110.04 123.693 110.167 123.693 110.294 123.693C110.549 123.693 110.803 123.693 111.108 123.617C111.388 123.567 111.591 123.516 111.719 123.465C111.846 123.415 111.973 123.313 112.1 123.161C112.227 123.009 112.405 122.705 112.634 122.299C112.838 121.894 113.117 121.311 113.448 120.576C113.778 119.841 114.185 118.852 114.669 117.61L106.2 98.2197H108.845L116.067 115.278L122.705 98.2197H125.121L114.999 123.237C114.618 124.15 114.109 124.834 113.473 125.29C112.838 125.747 111.947 125.949 110.803 125.949C110.32 125.949 109.913 125.924 109.531 125.848V123.617V123.643Z" fill="white"/>
<path d="M144.855 96.1666C144.118 95.3301 143.1 94.6458 141.854 94.1135C140.608 93.5812 139.184 93.3277 137.607 93.3277C135.242 93.3277 133.513 93.7586 132.445 94.6458C131.377 95.5329 130.843 96.7242 130.843 98.245C130.843 99.0308 130.995 99.6898 131.275 100.197C131.555 100.704 132.013 101.16 132.623 101.515C133.233 101.895 133.996 102.199 134.937 102.478C135.878 102.757 136.972 103.036 138.243 103.289C139.667 103.593 140.939 103.923 142.058 104.278C143.177 104.632 144.143 105.089 144.931 105.646C145.72 106.204 146.33 106.888 146.763 107.699C147.195 108.511 147.398 109.499 147.398 110.69C147.398 111.882 147.169 112.972 146.686 113.859C146.203 114.746 145.542 115.506 144.703 116.089C143.863 116.698 142.846 117.129 141.676 117.407C140.506 117.686 139.235 117.838 137.862 117.838C133.691 117.838 130.156 116.571 127.206 114.011L128.478 111.882C129.444 112.896 130.766 113.757 132.394 114.467C134.022 115.177 135.878 115.532 137.887 115.532C139.896 115.532 141.651 115.152 142.846 114.391C144.041 113.631 144.652 112.49 144.652 110.944C144.652 110.133 144.474 109.448 144.143 108.865C143.813 108.308 143.304 107.826 142.643 107.421C141.956 107.015 141.117 106.66 140.125 106.356C139.133 106.052 137.963 105.748 136.641 105.469C135.242 105.139 134.022 104.81 132.979 104.455C131.936 104.1 131.046 103.669 130.334 103.162C129.622 102.63 129.088 102.022 128.732 101.287C128.376 100.552 128.198 99.6645 128.198 98.5746C128.198 97.3579 128.427 96.268 128.885 95.3048C129.342 94.3416 130.003 93.5559 130.817 92.9222C131.631 92.2885 132.648 91.8069 133.818 91.4774C134.988 91.1479 136.26 90.9705 137.658 90.9705C139.413 90.9705 140.964 91.2493 142.338 91.7816C143.711 92.3138 144.982 93.0743 146.101 94.0374L144.855 96.1159V96.1666Z" fill="white"/>
<path d="M159.91 118.016C158.486 118.016 157.189 117.762 155.994 117.205C154.799 116.672 153.781 115.937 152.917 115.025C152.052 114.112 151.391 113.048 150.908 111.831C150.425 110.614 150.196 109.347 150.196 108.004C150.196 106.66 150.45 105.342 150.933 104.126C151.416 102.909 152.103 101.844 152.942 100.932C153.781 100.019 154.824 99.2843 155.994 98.7266C157.164 98.1943 158.461 97.9155 159.859 97.9155C161.258 97.9155 162.53 98.1943 163.725 98.7266C164.895 99.2843 165.937 99.994 166.802 100.932C167.667 101.87 168.328 102.909 168.811 104.126C169.294 105.342 169.549 106.635 169.549 108.004C169.549 109.372 169.294 110.614 168.811 111.831C168.328 113.048 167.641 114.112 166.802 115.025C165.963 115.937 164.92 116.672 163.725 117.205C162.53 117.737 161.258 118.016 159.859 118.016H159.91ZM152.84 108.054C152.84 109.144 153.019 110.158 153.375 111.096C153.731 112.034 154.239 112.845 154.875 113.555C155.511 114.264 156.248 114.822 157.113 115.202C157.978 115.608 158.893 115.811 159.859 115.811C160.826 115.811 161.741 115.608 162.606 115.202C163.471 114.797 164.208 114.239 164.869 113.529C165.505 112.82 166.039 112.008 166.395 111.045C166.777 110.107 166.955 109.094 166.955 108.004C166.955 106.914 166.777 105.925 166.395 104.962C166.014 103.999 165.505 103.162 164.869 102.478C164.234 101.768 163.471 101.211 162.631 100.805C161.792 100.4 160.877 100.197 159.91 100.197C158.944 100.197 158.028 100.4 157.164 100.805C156.299 101.211 155.562 101.768 154.926 102.503C154.29 103.213 153.781 104.075 153.425 105.013C153.069 105.951 152.866 106.99 152.866 108.08L152.84 108.054Z" fill="white"/>
<path d="M179.747 118.016C177.712 118.016 176.161 117.306 175.118 115.912C174.075 114.518 173.541 112.414 173.541 109.651V98.245H176.084V109.195C176.084 113.58 177.585 115.785 180.611 115.785C181.349 115.785 182.086 115.658 182.824 115.405C183.561 115.151 184.222 114.797 184.833 114.315C185.443 113.833 186.003 113.276 186.486 112.642C186.969 112.008 187.35 111.273 187.656 110.437V98.2197H190.199V114.34C190.199 115.025 190.504 115.38 191.14 115.38V117.61C190.631 117.686 190.3 117.712 190.097 117.712C189.512 117.712 189.029 117.534 188.622 117.179C188.215 116.824 188.012 116.394 188.012 115.887V113.2C187.147 114.721 185.977 115.887 184.528 116.723C183.078 117.559 181.501 117.965 179.772 117.965L179.747 118.016Z" fill="white"/>
<path d="M212.273 117.661H209.73V106.812C209.73 104.506 209.399 102.833 208.712 101.794C208.051 100.754 206.983 100.222 205.584 100.222C204.847 100.222 204.084 100.349 203.347 100.628C202.609 100.906 201.897 101.287 201.261 101.794C200.625 102.301 200.04 102.884 199.557 103.568C199.074 104.252 198.693 104.987 198.464 105.773V117.661H195.921V98.2704H198.235V102.655C198.642 101.971 199.125 101.312 199.71 100.729C200.295 100.146 200.956 99.6391 201.668 99.2336C202.38 98.8027 203.143 98.4985 203.957 98.2704C204.771 98.0422 205.61 97.9409 206.475 97.9409C207.568 97.9409 208.484 98.1436 209.221 98.5492C209.959 98.9547 210.543 99.5124 211.001 100.222C211.459 100.932 211.764 101.819 211.968 102.858C212.171 103.897 212.273 105.063 212.273 106.331V117.686V117.661Z" fill="white"/>
<path d="M225.624 118.016C224.276 118.016 223.03 117.737 221.886 117.179C220.741 116.622 219.75 115.887 218.91 114.974C218.071 114.062 217.435 112.997 216.978 111.78C216.52 110.564 216.291 109.322 216.291 108.004C216.291 106.686 216.52 105.342 216.952 104.1C217.41 102.858 218.02 101.794 218.809 100.881C219.597 99.9686 220.538 99.2336 221.606 98.7013C222.7 98.169 223.869 97.8902 225.166 97.8902C226.819 97.8902 228.269 98.3211 229.541 99.1829C230.812 100.045 231.829 101.084 232.567 102.301V90.4635H235.11V114.366C235.11 115.05 235.415 115.405 236 115.405V117.636C235.568 117.712 235.237 117.737 234.983 117.737C234.372 117.737 233.838 117.559 233.457 117.205C233.05 116.85 232.847 116.419 232.847 115.912V113.859C232.058 115.126 230.99 116.14 229.693 116.875C228.396 117.61 227.023 117.99 225.599 117.99L225.624 118.016ZM226.133 115.785C226.769 115.785 227.455 115.658 228.167 115.405C228.879 115.151 229.541 114.822 230.151 114.391C230.761 113.96 231.295 113.453 231.728 112.87C232.185 112.287 232.44 111.654 232.541 110.995V104.987C232.287 104.328 231.931 103.695 231.448 103.112C230.965 102.529 230.405 102.022 229.795 101.565C229.184 101.109 228.523 100.78 227.862 100.526C227.201 100.273 226.489 100.146 225.828 100.146C224.785 100.146 223.819 100.374 222.979 100.805C222.115 101.261 221.403 101.844 220.792 102.579C220.182 103.314 219.724 104.151 219.394 105.089C219.063 106.027 218.885 106.99 218.885 108.004C218.885 109.043 219.063 110.031 219.444 110.969C219.826 111.907 220.334 112.744 220.97 113.453C221.606 114.163 222.394 114.721 223.259 115.151C224.149 115.582 225.09 115.785 226.107 115.785H226.133Z" fill="white"/>
<path opacity="0.3" fill-rule="evenodd" clip-rule="evenodd" d="M130.384 71.1998C130.384 71.9095 124.459 72.4925 117.16 72.4925C109.861 72.4925 103.936 71.9095 103.936 71.1998C103.936 70.4901 109.861 69.9071 117.16 69.9071C124.459 69.9071 130.384 70.4901 130.384 71.1998Z" fill="#818181"/>
<path fill-rule="evenodd" clip-rule="evenodd" d="M115.838 31.1261V18.0471C116.041 18.3259 116.194 18.5287 116.346 18.7568C117.007 19.6186 117.847 20.2522 118.737 20.8606C119.627 21.4436 120.568 22.0012 121.331 22.7616C122.17 23.5727 122.882 24.5105 123.263 25.6512C123.772 27.172 123.569 28.6675 122.831 30.0615C122.551 30.5938 122.195 31.1008 121.865 31.6077C121.839 31.6077 121.814 31.6077 121.788 31.5824C121.839 31.4049 121.865 31.2022 121.916 31.0247C122.094 30.1883 122.144 29.3772 121.992 28.5407C121.788 27.5775 121.254 26.7918 120.466 26.1834C119.779 25.6512 118.991 25.271 118.152 24.9161C118.152 25.0175 118.152 25.0935 118.152 25.1696C118.152 27.9324 118.152 30.6699 118.152 33.4327C118.152 34.548 117.745 35.4858 116.906 36.1955C115.583 37.3108 114.083 37.7417 112.379 37.1841C111.184 36.8038 110.472 35.7646 110.573 34.5987C110.65 33.6355 111.158 32.8751 111.87 32.2667C112.964 31.3542 114.235 30.974 115.66 31.1768C115.685 31.1768 115.71 31.1768 115.736 31.1768C115.736 31.1768 115.761 31.1768 115.787 31.1768L115.838 31.1261Z" fill="white"/>
</g>
<defs>
<linearGradient id="paint0_linear_3_24" x1="96.8406" y1="35.1563" x2="137.632" y2="35.1563" gradientUnits="userSpaceOnUse">
<stop stop-color="#E65526"/>
<stop offset="0.32" stop-color="#E65827"/>
<stop offset="0.59" stop-color="#EA622A"/>
<stop offset="0.82" stop-color="#EF7231"/>
<stop offset="1" stop-color="#F58538"/>
</linearGradient>
<linearGradient id="paint1_linear_3_24" x1="96.51" y1="35.1563" x2="137.963" y2="35.1563" gradientUnits="userSpaceOnUse">
<stop stop-color="#D76527"/>
<stop offset="0.39" stop-color="#DA6727"/>
<stop offset="0.71" stop-color="#E4702A"/>
<stop offset="1" stop-color="#F5802F"/>
</linearGradient>
<clipPath id="clip0_3_24">
<rect width="236" height="126" fill="white"/>
</clipPath>
</defs>
</svg>
