<?xml version="1.0" encoding="UTF-8"?>
<svg xmlns="http://www.w3.org/2000/svg" version="1.1" viewBox="0 0 1617 512">
  <!-- Generator: Adobe Illustrator 28.7.10, SVG Export Plug-In . SVG Version: 1.2.0 Build 236)  -->
  <g>
    <g id="Layer_1">
      <g>
        <path d="M133.2,130.2c-4.8,0-8.7,3.9-8.7,8.7v234c0,4.8,3.9,8.7,8.7,8.7s8.7-3.9,8.7-8.7v-233.9c0-4.8-3.9-8.8-8.7-8.8Z"/>
        <path d="M256,130.2c-4.8,0-8.7,3.9-8.7,8.7v234c0,4.8,3.9,8.7,8.7,8.7s8.7-3.9,8.7-8.7v-233.9c0-4.8-3.9-8.8-8.7-8.8Z"/>
        <path d="M177.2,184.8c-4.8,0-8.7,3.9-8.7,8.7v124.9c0,4.8,3.9,8.7,8.7,8.7s8.7-3.9,8.7-8.7v-124.8c0-4.9-3.9-8.8-8.7-8.8h0Z"/>
        <path d="M216.5,217.1c-4.8,0-8.7,3.9-8.7,8.7v60.3c0,4.8,3.9,8.7,8.7,8.7s8.7-3.9,8.7-8.7v-60.3c.1-4.8-3.8-8.7-8.7-8.7Z"/>
        <path d="M89.2,184.8c-4.8,0-8.7,3.9-8.7,8.7v124.9c0,4.8,3.9,8.7,8.7,8.7s8.7-3.9,8.7-8.7v-124.8c0-4.9-3.9-8.8-8.7-8.8h0Z"/>
        <path d="M49.7,217.1c-4.8,0-8.7,3.9-8.7,8.7v60.3c0,4.8,3.9,8.7,8.7,8.7s8.7-3.9,8.7-8.7v-60.3c0-4.8-3.8-8.7-8.7-8.7Z"/>
        <path d="M378.8,130.2c-4.8,0-8.7,3.9-8.7,8.7v234c0,4.8,3.9,8.7,8.7,8.7s8.7-3.9,8.7-8.7v-233.9c.1-4.8-3.9-8.8-8.7-8.8Z"/>
        <path d="M422.8,184.8c-4.8,0-8.7,3.9-8.7,8.7v124.9c0,4.8,3.9,8.7,8.7,8.7s8.7-3.9,8.7-8.7v-124.8c0-4.9-3.9-8.8-8.7-8.8h0Z"/>
        <path d="M462.3,217.1c-4.8,0-8.7,3.9-8.7,8.7v60.3c0,4.8,3.9,8.7,8.7,8.7s8.6-3.8,8.7-8.6v-60.4c0-4.8-3.9-8.7-8.7-8.7h0Z"/>
        <path d="M334.8,184.8c-4.8,0-8.7,3.9-8.7,8.7v124.9c0,4.8,3.9,8.7,8.7,8.7s8.7-3.9,8.7-8.7v-124.8c.1-4.9-3.8-8.8-8.7-8.8h0Z"/>
        <path d="M295.5,217.1c-4.8,0-8.7,3.9-8.7,8.7v60.3c0,4.8,3.9,8.7,8.7,8.7s8.6-3.8,8.7-8.6v-60.4c0-4.8-3.9-8.7-8.7-8.7h0Z"/>
      </g>
      <g>
        <path d="M546.2,130.2c-4.8,0-8.7,3.9-8.7,8.7v234c0,4.8,3.9,8.7,8.7,8.7s8.7-3.9,8.7-8.7v-233.9c0-4.8-3.9-8.8-8.7-8.8Z"/>
        <path d="M669,130.2c-4.8,0-8.7,3.9-8.7,8.7v234c0,4.8,3.9,8.7,8.7,8.7s8.7-3.9,8.7-8.7v-233.9c0-4.8-3.9-8.8-8.7-8.8Z"/>
        <path d="M590.2,184.8c-4.8,0-8.7,3.9-8.7,8.7v124.9c0,4.8,3.9,8.7,8.7,8.7s8.7-3.9,8.7-8.7v-124.8c0-4.9-3.9-8.8-8.7-8.8h0Z"/>
        <path d="M629.5,217.1c-4.8,0-8.7,3.9-8.7,8.7v60.3c0,4.8,3.9,8.7,8.7,8.7s8.7-3.9,8.7-8.7v-60.3c.1-4.8-3.8-8.7-8.7-8.7Z"/>
        <path d="M502.2,184.8c-4.8,0-8.7,3.9-8.7,8.7v124.9c0,4.8,3.9,8.7,8.7,8.7s8.7-3.9,8.7-8.7v-124.8c0-4.9-3.9-8.8-8.7-8.8h0Z"/>
        <path d="M462.7,217.1c-4.8,0-8.7,3.9-8.7,8.7v60.3c0,4.8,3.9,8.7,8.7,8.7s8.7-3.9,8.7-8.7v-60.3c0-4.8-3.8-8.7-8.7-8.7Z"/>
        <path d="M791.8,130.2c-4.8,0-8.7,3.9-8.7,8.7v234c0,4.8,3.9,8.7,8.7,8.7s8.7-3.9,8.7-8.7v-233.9c.1-4.8-3.9-8.8-8.7-8.8Z"/>
        <path d="M835.8,184.8c-4.8,0-8.7,3.9-8.7,8.7v124.9c0,4.8,3.9,8.7,8.7,8.7s8.7-3.9,8.7-8.7v-124.8c0-4.9-3.9-8.8-8.7-8.8h0Z"/>
        <path d="M875.3,217.1c-4.8,0-8.7,3.9-8.7,8.7v60.3c0,4.8,3.9,8.7,8.7,8.7s8.6-3.8,8.7-8.6v-60.4c0-4.8-3.9-8.7-8.7-8.7h0Z"/>
        <path d="M747.8,184.8c-4.8,0-8.7,3.9-8.7,8.7v124.9c0,4.8,3.9,8.7,8.7,8.7s8.7-3.9,8.7-8.7v-124.8c.1-4.9-3.8-8.8-8.7-8.8h0Z"/>
        <path d="M708.5,217.1c-4.8,0-8.7,3.9-8.7,8.7v60.3c0,4.8,3.9,8.7,8.7,8.7s8.6-3.8,8.7-8.6v-60.4c0-4.8-3.9-8.7-8.7-8.7h0Z"/>
        <path d="M959.2,130.2c-4.8,0-8.7,3.9-8.7,8.7v234c0,4.8,3.9,8.7,8.7,8.7s8.7-3.9,8.7-8.7v-233.9c0-4.8-3.9-8.8-8.7-8.8Z"/>
        <path d="M1082,130.2c-4.8,0-8.7,3.9-8.7,8.7v234c0,4.8,3.9,8.7,8.7,8.7s8.7-3.9,8.7-8.7v-233.9c0-4.8-3.9-8.8-8.7-8.8Z"/>
        <path d="M1003.2,184.8c-4.8,0-8.7,3.9-8.7,8.7v124.9c0,4.8,3.9,8.7,8.7,8.7s8.7-3.9,8.7-8.7v-124.8c0-4.9-3.9-8.8-8.7-8.8h0Z"/>
        <path d="M1042.5,217.1c-4.8,0-8.7,3.9-8.7,8.7v60.3c0,4.8,3.9,8.7,8.7,8.7s8.7-3.9,8.7-8.7v-60.3c.1-4.8-3.8-8.7-8.7-8.7Z"/>
        <path d="M915.2,184.8c-4.8,0-8.7,3.9-8.7,8.7v124.9c0,4.8,3.9,8.7,8.7,8.7s8.7-3.9,8.7-8.7v-124.8c0-4.9-3.9-8.8-8.7-8.8h0Z"/>
        <path d="M1204.8,130.2c-4.8,0-8.7,3.9-8.7,8.7v234c0,4.8,3.9,8.7,8.7,8.7s8.7-3.9,8.7-8.7v-233.9c.1-4.8-3.9-8.8-8.7-8.8Z"/>
        <path d="M1248.8,184.8c-4.8,0-8.7,3.9-8.7,8.7v124.9c0,4.8,3.9,8.7,8.7,8.7s8.7-3.9,8.7-8.7v-124.8c0-4.9-3.9-8.8-8.7-8.8h0Z"/>
        <path d="M1288.3,217.1c-4.8,0-8.7,3.9-8.7,8.7v60.3c0,4.8,3.9,8.7,8.7,8.7s8.6-3.8,8.7-8.6v-60.4c0-4.8-3.9-8.7-8.7-8.7h0Z"/>
        <path d="M1160.8,184.8c-4.8,0-8.7,3.9-8.7,8.7v124.9c0,4.8,3.9,8.7,8.7,8.7s8.7-3.9,8.7-8.7v-124.8c.1-4.9-3.8-8.8-8.7-8.8h0Z"/>
        <path d="M1371.8,130.2c-4.8,0-8.7,3.9-8.7,8.7v234c0,4.8,3.9,8.7,8.7,8.7s8.7-3.9,8.7-8.7v-233.9c.1-4.8-3.9-8.8-8.7-8.8Z"/>
        <path d="M1415.8,184.8c-4.8,0-8.7,3.9-8.7,8.7v124.9c0,4.8,3.9,8.7,8.7,8.7s8.7-3.9,8.7-8.7v-124.8c0-4.9-3.9-8.8-8.7-8.8h0Z"/>
        <path d="M1327.8,184.8c-4.8,0-8.7,3.9-8.7,8.7v124.9c0,4.8,3.9,8.7,8.7,8.7s8.7-3.9,8.7-8.7v-124.8c.1-4.9-3.8-8.8-8.7-8.8h0Z"/>
        <path d="M1536.3,217.1c-4.8,0-8.7,3.9-8.7,8.7v60.3c0,4.8,3.9,8.7,8.7,8.7s8.6-3.8,8.7-8.6v-60.4c0-4.8-3.9-8.7-8.7-8.7h0Z"/>
        <path d="M1575.8,184.8c-4.8,0-8.7,3.9-8.7,8.7v124.9c0,4.8,3.9,8.7,8.7,8.7s8.7-3.9,8.7-8.7v-124.8c.1-4.9-3.8-8.8-8.7-8.8h0Z"/>
        <path d="M1121.5,217.1c-4.8,0-8.7,3.9-8.7,8.7v60.3c0,4.8,3.9,8.7,8.7,8.7s8.6-3.8,8.7-8.6v-60.4c0-4.8-3.9-8.7-8.7-8.7h0Z"/>
        <path d="M1497.8,184.8c-4.8,0-8.7,3.9-8.7,8.7v124.9c0,4.8,3.9,8.7,8.7,8.7s8.7-3.9,8.7-8.7v-124.8c.1-4.9-3.8-8.8-8.7-8.8h0Z"/>
        <path d="M1458.5,217.1c-4.8,0-8.7,3.9-8.7,8.7v60.3c0,4.8,3.9,8.7,8.7,8.7s8.6-3.8,8.7-8.6v-60.4c0-4.8-3.9-8.7-8.7-8.7h0Z"/>
      </g>
    </g>
  </g>
</svg>