<?xml version="1.0" encoding="UTF-8"?>
<svg id="Layer_2" xmlns="http://www.w3.org/2000/svg" viewBox="0 0 2759.21 281.4">
  <defs>
    <style>
        fill="#001c2f"
    </style>
  </defs>
  <g id="OBJECTS">
    <g>
      <path class="cls-1" d="M0,92.79v95.82c0,2.56,14.58,2.56,14.58,0v-95.82c0-2.56-14.58-2.56-14.58,0h0Z"/>
      <path class="cls-1" d="M44.99,119.39v42.62c0,2.56,14.58,2.56,14.58,0v-42.62c0-2.56-14.58-2.56-14.58,0h0Z"/>
      <path class="cls-1" d="M89.99,88.18v105.05c0,2.56,14.58,2.56,14.58,0v-105.05c0-2.56-14.58-2.56-14.58,0h0Z"/>
      <path class="cls-1" d="M134.98,98.04v85.32c0,2.56,14.58,2.56,14.58,0v-85.32c0-2.56-14.58-2.56-14.58,0h0Z"/>
      <path class="cls-1" d="M179.98,116.84v47.71c0,2.56,14.58,2.56,14.58,0v-47.71c0-2.56-14.58-2.56-14.58,0h0Z"/>
      <path class="cls-1" d="M224.97,100.42v80.55c0,2.56,14.58,2.56,14.58,0v-80.55c0-2.56-14.58-2.56-14.58,0h0Z"/>
      <path class="cls-1" d="M269.96,45.26v190.87c0,2.56,14.58,2.56,14.58,0V45.26c0-2.56-14.58-2.56-14.58,0h0Z"/>
      <path class="cls-1" d="M314.96,62.84v155.71c0,2.56,14.58,2.56,14.58,0V62.84c0-2.56-14.58-2.56-14.58,0h0Z"/>
      <path class="cls-1" d="M359.95,94.82v91.75c0,2.56,14.58,2.56,14.58,0v-91.75c0-2.56-14.58-2.56-14.58,0h0Z"/>
      <path class="cls-1" d="M404.95,69.37v142.66c0,2.56,14.58,2.56,14.58,0V69.37c0-2.56-14.58-2.56-14.58,0h0Z"/>
      <path class="cls-1" d="M449.94,96.08v89.25c0,2.56,14.58,2.56,14.58,0v-89.25c0-2.56-14.58-2.56-14.58,0h0Z"/>
      <path class="cls-1" d="M494.93,104.31v72.78c0,2.56,14.58,2.56,14.58,0v-72.78c0-2.56-14.58-2.56-14.58,0h0Z"/>
      <path class="cls-1" d="M539.93,112.53v56.33c0,2.56,14.58,2.56,14.58,0v-56.33c0-2.56-14.58-2.56-14.58,0h0Z"/>
      <path class="cls-1" d="M584.92,71.91v137.58c0,2.56,14.58,2.56,14.58,0V71.91c0-2.56-14.58-2.56-14.58,0h0Z"/>
      <path class="cls-1" d="M629.92,98.35v84.7c0,2.56,14.58,2.56,14.58,0v-84.7c0-2.56-14.58-2.56-14.58,0h0Z"/>
      <path class="cls-1" d="M674.91,86.14v109.11c0,2.56,14.58,2.56,14.58,0v-109.11c0-2.56-14.58-2.56-14.58,0h0Z"/>
      <path class="cls-1" d="M719.9,97.3v86.79c0,2.56,14.58,2.56,14.58,0v-86.79c0-2.56-14.58-2.56-14.58,0h0Z"/>
      <path class="cls-1" d="M764.9,73.6v134.2c0,2.56,14.58,2.56,14.58,0V73.6c0-2.56-14.58-2.56-14.58,0h0Z"/>
      <path class="cls-1" d="M809.89,110.01v61.38c0,2.56,14.58,2.56,14.58,0v-61.38c0-2.56-14.58-2.56-14.58,0h0Z"/>
      <path class="cls-1" d="M854.89,103.48v74.44c0,2.56,14.58,2.56,14.58,0v-74.44c0-2.56-14.58-2.56-14.58,0h0Z"/>
      <path class="cls-1" d="M899.88,57.72v165.96c0,2.56,14.58,2.56,14.58,0V57.72c0-2.56-14.58-2.56-14.58,0h0Z"/>
      <path class="cls-1" d="M944.87,49.6v182.2c0,2.56,14.58,2.56,14.58,0V49.6c0-2.56-14.58-2.56-14.58,0h0Z"/>
      <path class="cls-1" d="M989.87,119.44v42.52c0,2.56,14.58,2.56,14.58,0v-42.52c0-2.56-14.58-2.56-14.58,0h0Z"/>
      <path class="cls-1" d="M1034.86,63.59v154.22c0,2.56,14.58,2.56,14.58,0V63.59c0-2.56-14.58-2.56-14.58,0h0Z"/>
      <path class="cls-1" d="M1079.86,10.85v249.11c0,3.34-1.06,6.82,0,10.15.05.14,0,.29,0,.43,0,2.56,14.58,2.56,14.58,0V21.44c0-3.34,1.06-6.82,0-10.15-.05-.14,0-.29,0-.43,0-2.56-14.58-2.56-14.58,0h0Z"/>
      <path class="cls-1" d="M1124.85,34.13v213.13c0,2.56,14.58,2.56,14.58,0V34.13c0-2.56-14.58-2.56-14.58,0h0Z"/>
      <path class="cls-1" d="M1169.84,22.19v227.3c0,3.06-1,6.26,0,9.31.04.13,0,.27,0,.41,0,2.56,14.58,2.56,14.58,0V31.91c0-3.06,1-6.26,0-9.31-.04-.13,0-.27,0-.41,0-2.56-14.58-2.56-14.58,0h0Z"/>
      <path class="cls-1" d="M1214.84,89.72v101.96c0,2.56,14.58,2.56,14.58,0v-101.96c0-2.56-14.58-2.56-14.58,0h0Z"/>
      <path class="cls-1" d="M1259.83,99.39v82.62c0,2.56,14.58,2.56,14.58,0v-82.62c0-2.56-14.58-2.56-14.58,0h0Z"/>
      <path class="cls-1" d="M1304.83,88.04v105.32c0,2.56,14.58,2.56,14.58,0v-105.32c0-2.56-14.58-2.56-14.58,0h0Z"/>
      <path class="cls-1" d="M1349.82,110.4v60.6c0,2.56,14.58,2.56,14.58,0v-60.6c0-2.56-14.58-2.56-14.58,0h0Z"/>
      <path class="cls-1" d="M1394.81,43.85v193.69c0,2.56,14.58,2.56,14.58,0V43.85c0-2.56-14.58-2.56-14.58,0h0Z"/>
      <path class="cls-1" d="M1439.81,112.07v57.26c0,2.56,14.58,2.56,14.58,0v-57.26c0-2.56-14.58-2.56-14.58,0h0Z"/>
      <path class="cls-1" d="M1484.8,16.69v237.86c0,3.2-1.05,6.54,0,9.73.05.14,0,.28,0,.42,0,2.56,14.58,2.56,14.58,0V26.85c0-3.2,1.05-6.54,0-9.73-.05-.14,0-.28,0-.42,0-2.56-14.58-2.56-14.58,0h0Z"/>
      <path class="cls-1" d="M1529.8,1.92v266.24c0,3.57-1.11,7.29,0,10.85.05.15,0,.31,0,.47,0,2.56,14.58,2.56,14.58,0V13.24c0-3.57,1.11-7.29,0-10.85-.05-.15,0-.31,0-.47,0-2.56-14.58-2.56-14.58,0h0Z"/>
      <path class="cls-1" d="M1574.79,52.43v176.55c0,2.56,14.58,2.56,14.58,0V52.43c0-2.56-14.58-2.56-14.58,0h0Z"/>
      <path class="cls-1" d="M1619.78,31.46v218.49c0,2.56,14.58,2.56,14.58,0V31.46c0-2.56-14.58-2.56-14.58,0h0Z"/>
      <path class="cls-1" d="M1664.78,108.75v63.91c0,2.56,14.58,2.56,14.58,0v-63.91c0-2.56-14.58-2.56-14.58,0h0Z"/>
      <path class="cls-1" d="M1709.77,114.45v52.5c0,2.56,14.58,2.56,14.58,0v-52.5c0-2.56-14.58-2.56-14.58,0h0Z"/>
      <path class="cls-1" d="M1754.77,100.39v80.62c0,2.56,14.58,2.56,14.58,0v-80.62c0-2.56-14.58-2.56-14.58,0h0Z"/>
      <path class="cls-1" d="M1799.76,97.56v86.27c0,2.56,14.58,2.56,14.58,0v-86.27c0-2.56-14.58-2.56-14.58,0h0Z"/>
      <path class="cls-1" d="M1844.75,9.77v251.22c0,3.35-1.04,6.84,0,10.18.05.15,0,.31,0,.46,0,2.56,14.58,2.56,14.58,0V20.41c0-3.35,1.04-6.84,0-10.18-.05-.15,0-.31,0-.46,0-2.56-14.58-2.56-14.58,0h0Z"/>
      <path class="cls-1" d="M1889.75,78.18v125.04c0,2.56,14.58,2.56,14.58,0v-125.04c0-2.56-14.58-2.56-14.58,0h0Z"/>
      <path class="cls-1" d="M1934.74,111.82v57.76c0,2.56,14.58,2.56,14.58,0v-57.76c0-2.56-14.58-2.56-14.58,0h0Z"/>
      <path class="cls-1" d="M1979.74,110.5v60.4c0,2.56,14.58,2.56,14.58,0v-60.4c0-2.56-14.58-2.56-14.58,0h0Z"/>
      <path class="cls-1" d="M2024.73,70.24v140.91c0,2.56,14.58,2.56,14.58,0V70.24c0-2.56-14.58-2.56-14.58,0h0Z"/>
      <path class="cls-1" d="M2069.72,100.88v79.63c0,2.56,14.58,2.56,14.58,0v-79.63c0-2.56-14.58-2.56-14.58,0h0Z"/>
      <path class="cls-1" d="M2114.72,46.35v188.7c0,2.56,14.58,2.56,14.58,0V46.35c0-2.56-14.58-2.56-14.58,0h0Z"/>
      <path class="cls-1" d="M2159.71,74.02v133.35c0,2.56,14.58,2.56,14.58,0V74.02c0-2.56-14.58-2.56-14.58,0h0Z"/>
      <path class="cls-1" d="M2204.7,83.88v113.63c0,2.56,14.58,2.56,14.58,0v-113.63c0-2.56-14.58-2.56-14.58,0h0Z"/>
      <path class="cls-1" d="M2249.7,63.99v153.41c0,2.56,14.58,2.56,14.58,0V63.99c0-2.56-14.58-2.56-14.58,0h0Z"/>
      <path class="cls-1" d="M2294.69,50.33v180.75c0,2.56,14.58,2.56,14.58,0V50.33c0-2.56-14.58-2.56-14.58,0h0Z"/>
      <path class="cls-1" d="M2339.69,54.06v173.27c0,2.56,14.58,2.56,14.58,0V54.06c0-2.56-14.58-2.56-14.58,0h0Z"/>
      <path class="cls-1" d="M2384.68,99.75v81.91c0,2.56,14.58,2.56,14.58,0v-81.91c0-2.56-14.58-2.56-14.58,0h0Z"/>
      <path class="cls-1" d="M2429.67,84.6v112.2c0,2.56,14.58,2.56,14.58,0v-112.2c0-2.56-14.58-2.56-14.58,0h0Z"/>
      <path class="cls-1" d="M2474.67,76.57v128.26c0,2.56,14.58,2.56,14.58,0V76.57c0-2.56-14.58-2.56-14.58,0h0Z"/>
      <path class="cls-1" d="M2519.66,57.59v166.23c0,2.56,14.58,2.56,14.58,0V57.59c0-2.56-14.58-2.56-14.58,0h0Z"/>
      <path class="cls-1" d="M2564.66,98.02v85.37c0,2.56,14.58,2.56,14.58,0v-85.37c0-2.56-14.58-2.56-14.58,0h0Z"/>
      <path class="cls-1" d="M2609.65,91.47v98.47c0,2.56,14.58,2.56,14.58,0v-98.47c0-2.56-14.58-2.56-14.58,0h0Z"/>
      <path class="cls-1" d="M2654.64,79.53v122.34c0,2.56,14.58,2.56,14.58,0v-122.34c0-2.56-14.58-2.56-14.58,0h0Z"/>
      <path class="cls-1" d="M2699.64,107.46v66.48c0,2.56,14.58,2.56,14.58,0v-66.48c0-2.56-14.58-2.56-14.58,0h0Z"/>
      <path class="cls-1" d="M2744.63,86.87v107.65c0,2.56,14.58,2.56,14.58,0v-107.65c0-2.56-14.58-2.56-14.58,0h0Z"/>
    </g>
  </g>
</svg>